# xmcd
#
# Track frame offsets: 
#        150
#        13495
#        25112
#        36552
#        49094
#        67469
#        85432
#        88289
#        98674
#        112834
#        125338
#        135631
#        146940
#        159999
#        174097
#        184256
#        201644
#        214978
#        226098
#        236707
#        254662
#        262604
#
# Disc length: 3664 seconds
#
# Revision: 0
# Processed by: cddbd v1.5.2PL0 Copyright (c) Steve Scherf et al.
# Submitted via: ExactAudioCopyFreeDBPlugin 1.0
#
DISCID=480e4e16
DTITLE=Buster Brown - The Very Best Of Buster Brown
DYEAR=1999
DGENRE=Blues
TTITLE0=Fannie Mae
TTITLE1=John Henry
TTITLE2=Madison Shuffle
TTITLE3=Raise A Ruckus Tonight
TTITLE4=St. Louis Blues
TTITLE5=When Things Go Wrong (It Hurts Me Too)
TTITLE6=Lost In A Dream (False Start)
TTITLE7=Lost In A Dream
TTITLE8=Gonna Love My Baby
TTITLE9=Fannie Mae (Outtake)
TTITLE10=I Get The Blues When It Rains
TTITLE11=Is You Is Or Is You Ain't My Baby
TTITLE12=Don't Dog Your Woman
TTITLE13=Blueberry Hill
TTITLE14=Good News
TTITLE15=Sincerely
TTITLE16=Doctor Brown
TTITLE17=Sugar Babe
TTITLE18=No More
TTITLE19=Raise A Ruckus Tonight (Version 2)
TTITLE20=I'm Going But I'll Be Back
TTITLE21=Fannie Mae Is Back
EXTD=
EXTT0=
EXTT1=
EXTT2=
EXTT3=
EXTT4=
EXTT5=
EXTT6=
EXTT7=
EXTT8=
EXTT9=
EXTT10=
EXTT11=
EXTT12=
EXTT13=
EXTT14=
EXTT15=
EXTT16=
EXTT17=
EXTT18=
EXTT19=
EXTT20=
EXTT21=
PLAYORDER=
